<svg xmlns="http://www.w3.org/2000/svg" viewBox="0 0 108.84 135.48"><defs><style>.cls-1{fill:#fff;}</style></defs><title>Recurso 1</title><g id="Capa_2" data-name="Capa 2"><g id="Capa_1-2" data-name="Capa 1"><polygon points="81.45 91.92 81.45 91.92 81.77 91.8 81.45 91.92"/><path d="M0,86.32v38.41l.13,0,26.94,10.43.32.12.32-.12L54.22,125l26.91,10.41.32.12.32-.12,26.94-10.43.13-.05V86.47l-.13,0L82,76.1V37.92l-.13-.06L55,27.43h0V10.6l-.13,0L27.87.12,27.55,0l-.32.12L.29,10.55l-.13,0V49l.13.05L27.23,59.49h0V75.77l-.18.07L.13,86.27ZM27.23,21,1.17,10.9,27.23.81Zm0,17L.79,48.18V11.43L27.23,21.66Zm0,20.86L1.17,48.72,27.23,38.63ZM53.93,10.9,31.82,19.45,27.87,21V.81Zm.4,54.36L27.89,75.5v-16L54.33,49.25Zm0,20.86L28.27,76,54.33,66ZM81,38.21,58.92,46.76l-4,1.53V28.12L81,38.21Zm.74,76.29,26.06,10.09L81.77,134.68Zm0-17L88.22,95l20-7.74v36.75L81.77,113.82Zm0-20.86,26.06,10.09L85.72,95.32l-4,1.53ZM55.07,86.76,81.13,76.67V96.85ZM27.71,114.35l26.06,10.09L27.71,134.53Zm0-17,6.45-2.5,19.9-7.7v36.68L27.71,113.67Zm0-20.86L53.77,86.61h0l-22.1,8.56-4,1.53ZM27.07,96.7,1,86.61,27.07,76.52ZM1,124.44l26.06-10.09v20.18ZM.64,87.15,27.07,97.38v16.29L.64,123.9Z"/><path class="cls-1" d="M38.22,40.5a5.58,5.58,0,0,0,2,.54A4.63,4.63,0,0,0,42,40.71a4.15,4.15,0,0,0,1.8-1.21,2.18,2.18,0,0,0,.59-1.37,1,1,0,0,0-.52-.91,4,4,0,0,0-2.28.05c-1.91.37-3.28.26-4.08-.34a3.24,3.24,0,0,1-1.2-2.78A7.14,7.14,0,0,1,37.88,30,9,9,0,0,1,42,26.87a7.91,7.91,0,0,1,2.73-.59,5.82,5.82,0,0,1,2.77.74L45.3,29.87a10.09,10.09,0,0,0-2.13-.43,3.34,3.34,0,0,0-1.18.23,3.5,3.5,0,0,0-1.59,1.21,2.64,2.64,0,0,0-.61,1.56,1.08,1.08,0,0,0,.5,1,4.53,4.53,0,0,0,2.46,0,7.69,7.69,0,0,1,3.79,0A2.63,2.63,0,0,1,48,36.16a7.25,7.25,0,0,1-1.56,4.31A9.84,9.84,0,0,1,42,43.75a7,7,0,0,1-3.25.56A5.65,5.65,0,0,1,36,43.11l2.25-2.61"/><path class="cls-1" d="M63.84,58.22l11.25-4.43v2.74l-8,3.12v3.46L72,61.22v2.34l-4.85,1.89v4.48l8-3.09v2.72L63.84,73.92Z"/><path class="cls-1" d="M62.07,100.62l12.07,4.75v2.9l-4.49-1.76v14l-3.12-1.21v-14l-4.46-1.75Z"/></g></g></svg>